<svg width="53" height="56" viewBox="0 0 53 56" fill="none" xmlns="http://www.w3.org/2000/svg">
<path d="M42.6029 56.2154H10.3247C4.46632 56.2154 -0.288574 51.4406 -0.288574 45.5576V19.9237C-0.288574 14.0407 4.46632 9.26593 10.3247 9.26593H42.6029C48.4613 9.26593 53.2162 14.0407 53.2162 19.9237V45.5576C53.2162 51.4406 48.4613 56.2154 42.6029 56.2154Z" fill="#F9B842"/>
<path d="M42.6029 56.2154H10.3247C4.46632 56.2154 -0.288574 51.4406 -0.288574 45.5576V19.9237C-0.288574 14.0407 4.46632 9.26593 10.3247 9.26593H42.6029C48.4613 9.26593 53.2162 14.0407 53.2162 19.9237V45.5576C53.2162 51.4406 48.4613 56.2154 42.6029 56.2154Z" fill="#FFD27B"/>
<path d="M43.9824 4.94742C49.0781 4.94742 53.2163 9.49407 53.2163 15.1163V46.0465C53.2163 51.6524 48.0882 56.2154 42.9763 56.2154H31.584V4.94742H43.9824Z" fill="url(#paint0_linear_190_631)"/>
<path d="M8.94532 4.94742C3.84963 4.94742 -0.288595 9.49407 -0.288595 15.1163V46.0465C-0.288595 51.6524 4.83955 56.2154 9.95147 56.2154H21.3438V4.94742H8.94532Z" fill="url(#paint1_linear_190_631)"/>
<path d="M42.6029 46.8613H10.3247C4.46632 46.8613 -0.288574 42.0865 -0.288574 36.2036V10.5859C-0.288574 4.70299 4.46632 -0.0718079 10.3247 -0.0718079H42.6029C48.4613 -0.0718079 53.2162 4.70299 53.2162 10.5859V36.2199C53.2162 42.0865 48.4613 46.8613 42.6029 46.8613Z" fill="#FFDE32"/>
<defs>
<linearGradient id="paint0_linear_190_631" x1="60.2829" y1="30.5824" x2="31.5874" y2="30.5824" gradientUnits="userSpaceOnUse">
<stop stop-color="#FFBE5C"/>
<stop offset="0.84375" stop-color="#FFA90B" stop-opacity="0"/>
</linearGradient>
<linearGradient id="paint1_linear_190_631" x1="-7.35521" y1="30.5824" x2="21.3403" y2="30.5824" gradientUnits="userSpaceOnUse">
<stop stop-color="#FFBE5C"/>
<stop offset="0.84375" stop-color="#FFA90B" stop-opacity="0"/>
</linearGradient>
</defs>
</svg>
