<svg width="1777" height="961" viewBox="0 0 1777 961" fill="none" xmlns="http://www.w3.org/2000/svg">
<path opacity="0.4" d="M1775.66 -0.0543823H-14.7594V956.866H1775.66V-0.0543823Z" fill="url(#paint0_linear_121_13)"/>
<path opacity="0.4" fill-rule="evenodd" clip-rule="evenodd" d="M649.307 -0.0543823C649.307 -0.0543823 747.512 830.571 1775.68 956.866H-14.7594V-0.0543823H649.307Z" fill="url(#paint1_linear_121_13)"/>
<path opacity="0.4" fill-rule="evenodd" clip-rule="evenodd" d="M1322.11 3.90724C1322.11 3.90724 1305.66 822.227 869.063 956.847H1775.68V-0.0735474L1322.11 3.90724Z" fill="url(#paint2_linear_121_13)"/>
<path fill-rule="evenodd" clip-rule="evenodd" d="M-14.7594 -0.0543823C-14.7594 -0.0543823 31.147 660.929 384.522 956.904C737.897 1252.88 384.522 956.904 384.522 956.904L-14.7594 956.866V-0.0543823Z" fill="url(#paint3_linear_121_13)"/>
<path fill-rule="evenodd" clip-rule="evenodd" d="M1322.11 3.90735C1322.11 3.90735 1326.48 800.008 853.683 965.421H838.966C838.966 965.421 1274.65 896.867 1322.11 3.90735Z" fill="url(#paint4_linear_121_13)"/>
<path fill-rule="evenodd" clip-rule="evenodd" d="M649.307 -0.0543823C649.307 -0.0543823 724.505 489.104 1130.5 729.732L1134.74 721.272C1134.74 721.272 782.586 563.763 649.307 -0.0543823Z" fill="url(#paint5_linear_121_13)"/>
<path fill-rule="evenodd" clip-rule="evenodd" d="M-14.437 3.90735C-14.437 3.90735 68.2266 525.506 284.652 975.124L272.531 978.952C272.531 978.952 43.3219 456.397 -14.437 3.90735Z" fill="url(#paint6_linear_121_13)"/>
<g opacity="0.2">
<path d="M946.517 959.182L945.979 957.861C946.875 957.44 1035.91 914.513 1130.18 776.199C1217.19 648.546 1326.55 411.192 1353.46 5.49579L1354.8 5.59148C1342.92 184.899 1314.07 346.619 1269.06 486.214C1233.04 597.925 1186.67 695.799 1131.2 777.156C1036.72 915.719 947.394 958.761 946.517 959.182Z" fill="#FFFFBF"/>
<path d="M1002.45 961.631L1001.72 960.426C1002.68 959.756 1098.77 891.336 1192.4 740.066C1278.8 600.451 1380.69 359.69 1375.48 5.55326L1376.83 5.53412C1379.14 162.086 1360.89 309.758 1322.61 444.454C1291.98 552.223 1248.54 651.972 1193.47 740.927C1099.69 892.427 1003.42 960.962 1002.45 961.631Z" fill="#FFFFBF"/>
<path d="M1127.87 958.952L1126.79 958.091C1127.47 957.115 1196.53 857.901 1269.17 690.727C1336.22 536.452 1420.14 291.079 1439.15 -1.73859L1440.49 -1.64289C1432.1 127.752 1410.43 258.773 1376.11 387.785C1348.66 490.98 1313.09 593.121 1270.39 691.378C1197.66 858.667 1128.57 957.957 1127.87 958.952Z" fill="#FFFFBF"/>
<path d="M1220.7 956.79L1219.54 956.081C1358.22 690.957 1421.32 445.545 1449.8 286.371C1480.69 113.896 1478.74 2.68251 1478.72 1.59162L1480.06 1.55334C1480.08 2.66337 1482.03 113.972 1451.13 286.601C1432.97 387.977 1407.23 490.348 1374.57 590.863C1333.75 716.507 1281.97 839.624 1220.7 956.79Z" fill="#FFFFBF"/>
<path d="M1272.91 956.617L1271.76 955.852C1407.62 722.325 1461.82 475.325 1483.36 309.222C1506.7 129.245 1497.79 2.87388 1497.7 1.61074L1499.04 1.49591C1499.13 2.75905 1508.05 129.245 1484.7 309.375C1470.98 415.173 1448.98 518.482 1419.31 616.47C1382.22 738.956 1332.96 853.404 1272.91 956.617Z" fill="#FFFFBF"/>
<path d="M1322.63 961.345L1321.41 960.713C1432.87 713.655 1488.76 466.023 1516.05 301.778C1545.61 123.81 1548.85 2.73993 1548.89 1.55334L1550.23 1.59162C1550.19 2.79734 1546.95 123.982 1517.39 302.026C1490.09 466.368 1434.16 714.153 1322.63 961.345Z" fill="#FFFFBF"/>
<path d="M1364.26 958.876L1363.13 958.091C1491.93 746.707 1546.74 497.908 1570.01 326.39C1595.24 140.556 1589.96 2.95042 1589.89 1.59159L1591.23 1.53418C1591.28 2.91215 1596.58 140.632 1571.34 326.6C1556.51 435.823 1534.19 540.089 1505.02 636.47C1468.55 756.966 1421.19 865.442 1364.26 958.876Z" fill="#FFFFBF"/>
<path d="M1410.58 965.325L1409.47 964.541C1539.29 755.549 1605.21 505.468 1637.64 332.495C1672.78 145.053 1677.28 5.28529 1677.31 3.88818L1678.66 3.92646C1678.62 5.32356 1674.11 145.206 1638.94 332.763C1618.28 442.904 1591.26 547.706 1558.59 644.24C1517.77 764.908 1467.96 872.944 1410.58 965.325Z" fill="#FFFFBF"/>
<path d="M1498.95 961.383L1497.79 960.675C1603.98 761.023 1668.02 511.496 1703.04 337.337C1740.98 148.613 1753.98 5.26616 1754.1 3.84991L1755.45 3.98388C1755.32 5.41926 1742.32 148.823 1704.35 337.624C1669.31 511.879 1605.23 761.559 1498.95 961.383Z" fill="#FFFFBF"/>
<path d="M1613.79 961.306L1612.55 960.771C1673.57 801.386 1714.48 549.065 1738.04 365.47C1763.57 166.507 1774.82 3.16094 1774.93 1.53418L1776.27 1.62987C1776.16 3.25664 1764.92 166.641 1739.37 365.642C1715.79 549.314 1674.86 801.769 1613.79 961.306Z" fill="#FFFFBF"/>
<path d="M1654.14 961.306L1652.91 960.751C1704.28 830.591 1734.71 624.642 1751.2 474.789C1769.07 312.399 1774.85 179.081 1774.93 177.761L1776.27 177.818C1776.21 179.139 1770.41 312.495 1752.55 474.942C1736.04 624.891 1705.56 830.993 1654.14 961.306Z" fill="#FFFFBF"/>
<path d="M1734.52 954.168L1733.25 953.747C1778.22 800.869 1774.96 428.723 1774.91 424.972L1776.25 424.952C1776.3 428.704 1779.58 801.079 1734.52 954.168Z" fill="#FFFFBF"/>
<path d="M1121.05 750.745C1039.85 717.846 961.896 658.115 889.349 573.218C831.339 505.314 776.642 421.239 726.779 323.346C641.877 156.67 599.892 5.64883 599.48 4.13689L600.769 3.73499C601.181 5.24692 643.13 156.134 727.96 322.677C806.219 476.32 938.03 675.091 1121.51 749.406L1121.05 750.745Z" fill="#FFFFBF"/>
<path d="M1104.27 768.391C1027.3 739.588 950.366 681.464 875.598 595.648C815.816 527.018 757.269 440.627 701.587 338.887C606.803 165.646 552.481 5.74468 551.944 4.15619L553.215 3.67773C553.752 5.26622 608.038 165.053 702.769 338.179C790.177 497.908 930.851 701.962 1104.72 767.051L1104.27 768.391Z" fill="#FFFFBF"/>
<path d="M1065.56 818.936C982.916 770.898 900.789 698.153 821.438 602.748C757.986 526.443 696.144 435.536 637.669 332.571C538.104 157.244 482.064 5.68724 481.509 4.17531L482.762 3.65857C483.317 5.1705 539.34 156.632 638.851 331.844C730.664 493.525 879.358 709.043 1066.22 817.673L1065.56 818.936Z" fill="#FFFFBF"/>
<path d="M979.335 888.868C896.51 842.553 814.778 767.071 736.393 664.546C673.711 582.557 613.015 483.172 556.008 369.145C458.932 175.043 405.506 3.50551 404.969 1.78305L406.24 1.32373C406.759 3.02705 460.167 174.469 557.19 368.475C646.711 547.496 792.72 782.86 979.944 887.585L979.335 888.868Z" fill="#FFFFBF"/>
<path d="M928.022 923.259C853.021 873.193 776.91 793.73 701.838 687.034C641.787 601.715 582.256 498.884 524.873 381.393C427.206 181.378 368.91 5.89779 368.337 4.15619L369.608 3.67773C370.181 5.41933 428.441 180.823 526.091 380.743C616.184 565.218 759.167 808.869 928.756 922.034L928.022 923.259Z" fill="#FFFFBF"/>
<path d="M840.488 952.369C697.792 777.731 565.981 529.218 480.542 351.499C387.96 158.948 328.357 5.70635 327.766 4.19442L329.001 3.6394C329.592 5.17048 389.177 158.354 481.724 350.848C567.127 528.491 698.884 776.889 841.491 951.412L840.488 952.369Z" fill="#FFFFBF"/>
<path d="M764.27 957.421C697.147 892.025 629.881 800.907 564.352 686.613C511.946 595.189 460.507 488.817 411.486 370.446C328.034 168.9 279.89 0.194458 279.406 -1.48972L280.696 -1.91077C281.179 -0.226587 329.305 168.402 412.739 369.853C489.727 555.763 613.373 808.41 765.183 956.33L764.27 957.421Z" fill="#FFFFBF"/>
<path d="M730.717 956.752C657.185 880.294 585.747 782.611 518.392 666.46C464.5 573.543 413.097 468.665 365.579 354.715C284.67 160.728 242.596 5.64898 242.184 4.11791L243.473 3.716C243.885 5.26621 285.942 160.249 366.797 354.159C441.422 533.104 565.283 782.726 731.649 955.718L730.717 956.752Z" fill="#FFFFBF"/>
<path d="M663.756 959.89C527.881 803.74 399.973 552.625 316.612 369.47C226.285 171.043 167.326 7.42878 166.735 5.80202L167.989 5.28528C168.58 6.91204 227.52 170.488 317.811 368.858C401.137 551.917 528.973 802.898 664.741 958.914L663.756 959.89Z" fill="#FFFFBF"/>
<path d="M605.03 957.326C466.219 765.061 333.298 515.075 246.23 339.212C151.911 148.67 89.6042 1.68734 88.9775 0.232817L90.195 -0.360474C90.8217 1.09405 153.11 148.039 247.412 338.543C334.444 514.348 467.329 764.276 606.086 956.445L605.03 957.326Z" fill="#FFFFBF"/>
<path d="M534.667 957.383C398.344 797.692 269.685 545.046 185.768 361.221C94.8501 162.067 35.3903 -1.4323 34.7994 -3.05907L36.0527 -3.57581C36.6436 -1.94904 96.0855 161.512 186.985 360.609C270.866 544.338 399.454 796.85 535.651 956.407L534.667 957.383Z" fill="#FFFFBF"/>
<path d="M402.874 957.364C298.349 833.615 190.279 581.007 118.018 390.886C39.7231 184.938 -14.5445 5.91689 -15.0817 4.13702L-13.8105 3.69684C-13.2733 5.47671 40.9943 184.459 119.253 390.369C191.479 580.375 299.477 832.83 403.859 956.407L402.874 957.364Z" fill="#FFFFBF"/>
<path d="M324.812 961.459C234.682 830.858 148.223 589.007 91.5558 409.106C30.1802 214.238 -10.4265 48.0787 -10.8383 46.4328L-9.53125 46.0692C-9.13736 47.7151 31.4694 213.836 92.827 408.665C149.458 588.451 235.864 830.15 325.886 960.598L324.812 961.459Z" fill="#FFFFBF"/>
<path d="M190.781 961.326C89.1745 720.086 -14.8489 222.889 -15.8873 217.894L-14.5803 217.588C-13.5419 222.583 90.4457 719.626 192.016 960.732L190.781 961.326Z" fill="#FFFFBF"/>
<path d="M166.789 961.383C59.4893 758.822 -17.2301 395.345 -18 391.69L-16.693 391.384C-15.9231 395.02 60.7605 758.305 167.953 960.675L166.789 961.383Z" fill="#FFFFBF"/>
<path d="M114.563 963.622C44.217 817.098 -12.9868 537.199 -13.5419 534.386L-12.2349 534.079C-11.6619 536.893 45.4882 816.601 115.762 962.952L114.563 963.622Z" fill="#FFFFBF"/>
<path d="M54.9595 975.469C14.2096 894.379 -13.2913 700.373 -13.5598 698.421L-12.2349 698.21C-11.9663 700.163 15.4987 893.939 56.1412 974.799L54.9595 975.469Z" fill="#FFFFBF"/>
<path d="M1316.94 49.0548C1168.69 -3.80548 661.786 37.055 656.684 37.4761L656.576 36.0407C661.679 35.6197 1168.87 -5.25999 1317.37 47.696L1316.94 49.0548Z" fill="#FFFFBF"/>
<path d="M682.519 119.771L682.34 118.355C686.136 117.838 1064.95 66.4133 1314.36 118.355L1314.11 119.771C1064.92 67.8487 686.315 119.254 682.519 119.771Z" fill="#FFFFBF"/>
<path d="M713.243 205.531L712.974 204.114C715.785 203.521 997.938 144.536 1309.17 164.708L1309.09 166.144C998.027 145.972 716.054 204.937 713.243 205.531Z" fill="#FFFFBF"/>
<path d="M744.629 278.543L744.396 277.127C747.888 276.457 1096.55 211.559 1299.84 246.831L1299.62 248.247C1096.57 213.033 748.121 277.893 744.629 278.543Z" fill="#FFFFBF"/>
<path d="M762.283 312.667L761.996 311.27C764.807 310.639 1044.99 248.458 1290.76 284.859L1290.58 286.275C1045.04 249.913 765.076 312.036 762.283 312.667Z" fill="#FFFFBF"/>
<path d="M785.003 365.604L784.788 364.188C787.689 363.69 1076.98 314.16 1277.85 352.513L1277.62 353.93C1076.97 315.595 787.903 365.087 785.003 365.604Z" fill="#FFFFBF"/>
<path d="M1275.7 380.743C1120.04 357.451 799.452 379.69 796.229 379.92L796.139 378.484C799.362 378.255 1120.1 356.016 1275.9 379.326L1275.7 380.743Z" fill="#FFFFBF"/>
<path d="M848.957 430.388L848.796 428.971C851.284 428.627 1100.21 395.632 1261.85 416.551L1261.68 417.967C1100.21 397.068 851.445 430.062 848.957 430.388Z" fill="#FFFFBF"/>
<path d="M885.32 483.994L885.213 482.559C887.719 482.348 1137.45 461.774 1248.15 469.277L1248.06 470.712C1137.47 463.229 887.827 483.784 885.32 483.994Z" fill="#FFFFBF"/>
<path d="M963.848 583.744L963.633 582.327C964.94 582.098 1095.46 558.979 1212.9 566.481L1212.82 567.916C1095.55 560.433 965.155 583.514 963.848 583.744Z" fill="#FFFFBF"/>
<path d="M1036.11 660.833L1035.84 659.436C1036.81 659.226 1132.94 637.791 1182.64 643.36L1182.49 644.795C1132.99 639.226 1037.08 660.623 1036.11 660.833Z" fill="#FFFFBF"/>
</g>
<g style="mix-blend-mode:multiply" opacity="0.3">
<path fill-rule="evenodd" clip-rule="evenodd" d="M1311.94 5.53412C1311.94 5.53412 1314.25 364.877 1097.41 698.976L1123.75 715.76C1123.75 715.76 1025.65 901.441 823.103 958.512L869.063 956.847C869.045 956.866 1287.04 844.466 1311.94 5.53412Z" fill="url(#paint7_linear_121_13)"/>
</g>
<g style="mix-blend-mode:multiply" opacity="0.3">
<path fill-rule="evenodd" clip-rule="evenodd" d="M-10.1759 38.7392C-10.1759 38.7392 111.483 652.221 296.791 992.789L362.93 1001.36C362.912 1001.36 122.978 657.427 -10.1759 38.7392Z" fill="url(#paint8_linear_121_13)"/>
</g>
<defs>
<linearGradient id="paint0_linear_121_13" x1="880.457" y1="956.857" x2="880.457" y2="-0.063166" gradientUnits="userSpaceOnUse">
<stop offset="0.0171" stop-color="#FFC42C"/>
<stop offset="0.9665" stop-color="#FFD600"/>
</linearGradient>
<linearGradient id="paint1_linear_121_13" x1="880.457" y1="956.857" x2="880.457" y2="-0.063166" gradientUnits="userSpaceOnUse">
<stop offset="0.0171" stop-color="#FF8B2C"/>
<stop offset="0.0422" stop-color="#FF8D2A"/>
<stop offset="0.3782" stop-color="#FFA413"/>
<stop offset="0.6939" stop-color="#FFB105"/>
<stop offset="0.9665" stop-color="#FFB600"/>
</linearGradient>
<linearGradient id="paint2_linear_121_13" x1="1322.36" y1="956.857" x2="1322.36" y2="-0.0631666" gradientUnits="userSpaceOnUse">
<stop offset="0.0171" stop-color="#FFA12C"/>
<stop offset="0.9665" stop-color="#FFC500"/>
</linearGradient>
<linearGradient id="paint3_linear_121_13" x1="263.409" y1="1088.43" x2="263.409" y2="-0.0632059" gradientUnits="userSpaceOnUse">
<stop offset="0.0171" stop-color="#FFA12C"/>
<stop offset="0.9665" stop-color="#FFB600"/>
</linearGradient>
<linearGradient id="paint4_linear_121_13" x1="1080.54" y1="965.42" x2="1080.54" y2="3.91537" gradientUnits="userSpaceOnUse">
<stop offset="0.0171" stop-color="#FFAE2C"/>
<stop offset="0.9665" stop-color="#FFCD00"/>
</linearGradient>
<linearGradient id="paint5_linear_121_13" x1="892.018" y1="729.725" x2="892.018" y2="-0.0631691" gradientUnits="userSpaceOnUse">
<stop offset="0.0171" stop-color="#FFAE2C"/>
<stop offset="0.9665" stop-color="#FFCD00"/>
</linearGradient>
<linearGradient id="paint6_linear_121_13" x1="135.104" y1="978.956" x2="135.104" y2="3.91537" gradientUnits="userSpaceOnUse">
<stop offset="0.0171" stop-color="#FFAE2C"/>
<stop offset="0.9665" stop-color="#FFCD00"/>
</linearGradient>
<linearGradient id="paint7_linear_121_13" x1="823.099" y1="482.031" x2="1311.94" y2="482.031" gradientUnits="userSpaceOnUse">
<stop offset="0.00558659" stop-color="#DB5098"/>
<stop offset="1" stop-color="#FFFED1"/>
</linearGradient>
<linearGradient id="paint8_linear_121_13" x1="-10.1829" y1="520.052" x2="362.916" y2="520.052" gradientUnits="userSpaceOnUse">
<stop offset="0.00558659" stop-color="#DB5098"/>
<stop offset="1" stop-color="#FFFED1"/>
</linearGradient>
</defs>
</svg>
