<svg width="950" height="646" viewBox="0 0 950 646" fill="none" xmlns="http://www.w3.org/2000/svg">
<path d="M39.3318 646C17.6536 646 0 627.849 0 605.56V102.44C0 80.1197 17.6536 62 39.3318 62H910.668C932.377 62 950 80.1511 950 102.44V605.56C950 627.88 932.346 646 910.668 646H39.3318Z" fill="#FFCA7B"/>
<path d="M39.3318 630C17.6536 630 0 610.419 0 586.375V43.6255C0 19.5469 17.6536 0 39.3318 0H910.668C932.377 0 950 19.5808 950 43.6255V586.375C950 610.453 932.346 630 910.668 630H39.3318Z" fill="#FDE8B3"/>
<path d="M910.853 618H39.1474C24.1401 618 12 604.438 12 587.749V42.2507C12 25.5278 24.1706 12 39.1474 12H910.853C925.86 12 938 25.5618 938 42.2507V587.749C938 604.472 925.86 618 910.853 618Z" fill="#FFF6D4"/>
<g clip-path="url(#clip0_149_1267)" filter="url(#filter0_d_149_1267)">
<path d="M647.287 579H302.713C296.247 579 291 573.305 291 566.288V535.712C291 528.695 296.247 523 302.713 523H647.287C653.753 523 659 528.695 659 535.712V566.288C658.982 573.305 653.753 579 647.287 579Z" fill="#BD000B"/>
<path d="M648.858 518C654.455 518 659 523.41 659 530.099V566.901C659 573.571 653.368 579 647.753 579H556V518H648.858Z" fill="url(#paint0_linear_149_1267)"/>
<path d="M301.142 518C295.545 518 291 523.41 291 530.099V566.901C291 573.571 296.632 579 302.247 579H394V518H301.142Z" fill="url(#paint1_linear_149_1267)"/>
<path d="M647.305 571.869H302.713C296.248 571.869 291 565.676 291 558.046V524.822C291 517.193 296.248 511 302.713 511H647.305C653.77 511 659.018 517.193 659.018 524.822V558.067C659 565.676 653.77 571.869 647.305 571.869Z" fill="#FF000A"/>
<path d="M410.979 549.973C408.162 549.973 405.765 548.997 403.787 547.047C401.818 545.087 400.834 542.717 400.834 539.938C400.834 537.148 401.818 534.77 403.787 532.801C405.765 530.823 408.098 529.834 410.787 529.834C413.476 529.834 415.458 530.404 416.734 531.543C418.02 532.682 418.694 533.785 418.758 534.852V535.07C418.758 536.547 417.965 537.704 416.379 538.543C416.033 538.798 415.499 538.958 414.779 539.021L414.588 538.639C414.278 538.074 413.813 537.604 413.193 537.23C412.583 536.857 411.926 536.67 411.225 536.67C410.14 536.67 409.224 537.016 408.477 537.709C407.738 538.402 407.369 539.231 407.369 540.197C407.369 541.154 407.747 541.984 408.504 542.686C409.251 543.378 410.158 543.725 411.225 543.725C411.562 543.725 411.899 543.688 412.236 543.615L412.154 540.225C413.166 539.833 414.305 539.637 415.572 539.637C416.821 539.637 417.814 539.814 418.553 540.17C419.291 540.525 419.66 541.022 419.66 541.66V544.764L419.51 550.109C418.917 550.893 417.979 551.285 416.693 551.285C414.679 551.285 413.371 550.82 412.77 549.891C412.159 549.945 411.562 549.973 410.979 549.973ZM438.813 539.555L438.526 548.852C438.526 548.924 438.535 548.97 438.553 548.988C438.198 549.271 437.701 549.512 437.063 549.713C436.388 549.923 435.75 550.027 435.149 550.027C434.52 550.027 434.005 549.941 433.604 549.768C433.194 549.585 432.929 549.421 432.811 549.275C432.692 549.13 432.542 548.874 432.36 548.51L432.086 547.99L430.746 549.002C430.464 549.202 430.04 549.421 429.475 549.658C428.928 549.886 428.24 550 427.41 550C426.581 550 425.825 549.886 425.141 549.658C424.466 549.43 423.815 549.025 423.186 548.441C422.584 547.867 422.284 546.632 422.284 544.736V543.752C422.284 542.686 422.32 541.291 422.393 539.568C422.484 537.472 422.53 536.374 422.53 536.273C422.557 536.21 422.821 535.973 423.323 535.562C423.824 535.161 424.708 534.961 425.975 534.961C427.251 534.961 428.167 535.289 428.723 535.945C429.297 536.602 429.584 537.34 429.584 538.16L429.448 543.861C429.448 544.518 429.757 544.846 430.377 544.846C430.979 544.837 431.416 544.49 431.69 543.807V535.918C432.164 535.417 433.285 535.166 435.053 535.166C436.438 535.166 437.441 535.544 438.061 536.301C438.836 536.51 439.291 536.488 439.428 536.232C439.592 535.813 439.419 535.499 438.909 535.289L437.719 535.016C437.145 534.788 436.958 534.291 437.159 533.525C437.605 532.413 438.672 532.195 440.358 532.869C441.379 533.279 442.062 533.936 442.409 534.838C442.746 535.74 442.741 536.633 442.395 537.518C442.039 538.411 441.324 539.021 440.248 539.35C439.774 539.495 439.296 539.564 438.813 539.555ZM428.668 527.223C430.09 526.603 431.462 526.658 432.784 527.387C433.431 527.952 433.754 528.672 433.754 529.547C433.754 530.422 433.381 531.151 432.633 531.734C432.351 532.072 431.913 532.45 431.321 532.869C430.181 533.407 429.475 533.156 429.201 532.117C429.201 531.634 429.361 531.242 429.68 530.941L430.159 530.586C430.687 530.24 430.974 529.893 431.02 529.547C431.002 529.173 430.765 528.986 430.309 528.986L429.311 529.123C428.791 529.123 428.481 528.795 428.381 528.139C428.381 527.729 428.477 527.423 428.668 527.223ZM443.618 535.754C443.618 534.514 444.019 533.576 444.821 532.938C445.632 532.29 446.671 531.967 447.938 531.967C449.214 531.967 450.317 532.404 451.247 533.279C452.185 534.136 452.655 535.28 452.655 536.711C452.655 538.133 452.03 539.304 450.782 540.225C451.265 540.626 451.506 541.204 451.506 541.961V548.824C450.814 549.645 449.556 550.055 447.733 550.055C445.646 550.055 444.57 549.216 444.506 547.539C444.433 544.814 444.397 543.273 444.397 542.918C444.397 542.353 444.415 541.938 444.452 541.674C444.497 541.364 444.602 541.063 444.766 540.771C444.939 540.471 445.126 540.27 445.327 540.17C445.773 540.325 446.293 540.411 446.885 540.43C448.097 540.43 449.137 540.01 450.002 539.172C450.877 538.324 451.315 537.312 451.315 536.137L450.563 535.727C450.563 536.684 450.198 537.513 449.469 538.215C448.749 538.908 447.888 539.254 446.885 539.254H446.776C446.311 539.254 445.791 539.122 445.217 538.857C444.151 538.338 443.618 537.303 443.618 535.754ZM467.666 539.021L467.53 548.018C467.347 548.419 467.019 548.852 466.545 549.316C466.062 549.772 465.383 550 464.508 550C461.428 550 459.887 548.359 459.887 545.078L459.696 531.297C460.762 530.641 461.965 530.312 463.305 530.312C464.636 530.312 465.702 530.609 466.504 531.201C467.306 531.785 467.708 532.637 467.708 533.758L467.666 539.021ZM468.309 535.754C468.309 534.514 468.71 533.576 469.512 532.938C470.323 532.29 471.362 531.967 472.629 531.967C473.905 531.967 475.008 532.404 475.938 533.279C476.877 534.136 477.346 535.28 477.346 536.711C477.346 538.133 476.722 539.304 475.473 540.225C475.956 540.626 476.198 541.204 476.198 541.961V548.824C475.505 549.645 474.247 550.055 472.424 550.055C470.337 550.055 469.262 549.216 469.198 547.539C469.125 544.814 469.088 543.273 469.088 542.918C469.088 542.353 469.107 541.938 469.143 541.674C469.189 541.364 469.293 541.063 469.457 540.771C469.631 540.471 469.818 540.27 470.018 540.17C470.465 540.325 470.984 540.411 471.577 540.43C472.789 540.43 473.828 540.01 474.694 539.172C475.569 538.324 476.006 537.312 476.006 536.137L475.254 535.727C475.254 536.684 474.89 537.513 474.161 538.215C473.441 538.908 472.579 539.254 471.577 539.254H471.467C471.002 539.254 470.483 539.122 469.909 538.857C468.842 538.338 468.309 537.303 468.309 535.754ZM492.645 541.182C492.645 542.859 492.335 543.848 491.715 544.148H483.102C483.102 544.285 483.28 544.572 483.635 545.01C484.009 545.447 484.702 545.666 485.713 545.666C487.573 545.666 488.858 545.42 489.569 544.928L489.924 544.682C490.034 544.682 490.43 544.796 491.114 545.023C491.816 545.26 492.185 545.734 492.221 546.445C492.239 546.646 492.249 546.901 492.249 547.211C492.249 547.566 492.185 547.895 492.057 548.195C491.93 548.487 491.569 548.861 490.977 549.316C490.385 549.772 488.831 550 486.315 550C484.775 550 483.444 549.79 482.323 549.371C481.183 548.943 480.158 548.2 479.247 547.143C478.326 546.058 477.866 544.481 477.866 542.412C477.866 541.701 477.966 540.917 478.166 540.061C478.376 539.186 478.663 538.475 479.028 537.928C479.402 537.354 480.008 536.67 480.846 535.877C481.703 535.066 483.321 534.66 485.7 534.66C487.969 534.66 489.651 535.198 490.745 536.273C491.219 536.72 491.656 537.358 492.057 538.188C492.449 538.98 492.645 539.979 492.645 541.182ZM487.682 541.209V541.018C487.682 540.425 487.5 539.942 487.135 539.568C486.752 539.186 486.228 538.994 485.563 538.994C484.196 538.994 483.485 539.732 483.43 541.209H487.682ZM489.159 530.572C489.514 530.855 489.692 531.274 489.692 531.83C489.628 532.222 489.473 532.541 489.227 532.787C489.017 532.997 488.548 533.266 487.819 533.594C486.825 532.855 486.032 532.222 485.44 531.693L483.034 533.73C482.478 533.493 482.008 533.188 481.625 532.814C481.325 532.468 481.161 532.14 481.133 531.83V531.639C481.133 531.192 481.32 530.837 481.694 530.572L484.374 528.604C484.829 528.212 485.18 528.016 485.426 528.016C485.654 528.016 486.347 528.449 487.504 529.314L489.159 530.572ZM497.485 549.973C494.978 549.973 493.725 548.751 493.725 546.309V545.639L493.985 536C494.34 535.717 494.832 535.476 495.461 535.275C496.136 535.066 496.774 534.961 497.375 534.961C497.986 534.961 498.497 535.052 498.907 535.234C499.326 535.417 499.595 535.581 499.713 535.727C499.85 535.882 500 536.132 500.165 536.479L500.452 537.012L500.93 536.643C501.24 536.396 501.682 536.068 502.256 535.658C502.867 535.212 503.833 534.988 505.155 534.988C505.93 534.988 506.672 535.107 507.383 535.344C508.085 535.581 508.732 535.982 509.325 536.547C509.935 537.121 510.241 538.356 510.241 540.252V541.236C510.241 542.303 510.204 543.697 510.131 545.42C510.04 547.516 509.995 548.615 509.995 548.715C509.958 548.806 509.826 548.943 509.598 549.125C509.398 549.289 509.083 549.485 508.655 549.713C508.254 549.923 507.488 550.027 506.358 550.027C505.219 550.027 504.362 549.704 503.788 549.057C503.222 548.391 502.94 547.653 502.94 546.842L503.077 541.127C503.077 540.471 502.771 540.143 502.161 540.143C501.568 540.152 501.126 540.498 500.834 541.182V549.221C500.36 549.722 499.244 549.973 497.485 549.973ZM528.479 534.906C532.116 534.906 533.934 536.483 533.934 539.637L533.647 548.797C533.61 548.879 533.364 549.125 532.909 549.535C532.453 549.936 531.56 550.137 530.229 550.137C528.889 550.137 527.932 549.813 527.358 549.166C526.793 548.501 526.51 547.753 526.51 546.924L526.647 541.127C526.647 540.452 526.323 540.115 525.676 540.115C525.12 540.115 524.669 540.471 524.323 541.182V549.221C524.131 549.412 523.717 549.59 523.079 549.754C522.441 549.918 521.743 550 520.987 550C520.212 550 519.579 549.886 519.086 549.658C518.603 549.439 518.129 549.038 517.665 548.455C517.218 547.899 516.995 546.4 516.995 543.957L517.131 537.039C517.131 535.936 517.086 534.049 516.995 531.379C518.216 530.723 519.41 530.395 520.577 530.395C520.923 530.395 521.155 530.426 521.274 530.49C523.352 530.8 524.4 532.154 524.418 534.551C524.418 535.316 524.341 536.05 524.186 536.752C525.735 535.521 527.166 534.906 528.479 534.906ZM549.329 541.182C549.329 542.859 549.019 543.848 548.399 544.148H539.786C539.786 544.285 539.963 544.572 540.319 545.01C540.693 545.447 541.385 545.666 542.397 545.666C544.256 545.666 545.541 545.42 546.252 544.928L546.608 544.682C546.717 544.682 547.114 544.796 547.797 545.023C548.499 545.26 548.868 545.734 548.905 546.445C548.923 546.646 548.932 546.901 548.932 547.211C548.932 547.566 548.868 547.895 548.741 548.195C548.613 548.487 548.253 548.861 547.661 549.316C547.068 549.772 545.514 550 542.999 550C541.458 550 540.127 549.79 539.006 549.371C537.867 548.943 536.842 548.2 535.93 547.143C535.01 546.058 534.549 544.481 534.549 542.412C534.549 541.701 534.65 540.917 534.85 540.061C535.06 539.186 535.347 538.475 535.711 537.928C536.085 537.354 536.691 536.67 537.53 535.877C538.387 535.066 540.004 534.66 542.383 534.66C544.653 534.66 546.334 535.198 547.428 536.273C547.902 536.72 548.34 537.358 548.741 538.188C549.133 538.98 549.329 539.979 549.329 541.182ZM544.366 541.209V541.018C544.366 540.425 544.183 539.942 543.819 539.568C543.436 539.186 542.912 538.994 542.247 538.994C540.879 538.994 540.168 539.732 540.114 541.209H544.366ZM546.184 530.422C546.54 530.704 546.717 531.124 546.717 531.68C546.653 532.072 546.499 532.391 546.252 532.637C546.043 532.846 545.573 533.115 544.844 533.443C543.851 532.705 543.058 532.072 542.465 531.543L540.059 533.58C539.503 533.343 539.034 533.038 538.651 532.664C538.35 532.318 538.186 531.99 538.159 531.68V531.488C538.159 531.042 538.346 530.686 538.719 530.422L541.399 528.453C541.855 528.061 542.206 527.865 542.452 527.865C542.68 527.865 543.372 528.298 544.53 529.164L546.184 530.422ZM540.579 555.906C540.214 555.542 540.032 555.095 540.032 554.566C540.032 554.038 540.209 553.582 540.565 553.199C540.93 552.807 541.376 552.611 541.905 552.611C542.433 552.611 542.889 552.807 543.272 553.199C543.664 553.582 543.86 554.038 543.86 554.566C543.86 555.086 543.668 555.533 543.286 555.906C542.912 556.271 542.456 556.453 541.918 556.453C541.39 556.453 540.943 556.271 540.579 555.906Z" fill="white"/>
</g>
<path d="M910.853 618H39.1474C24.1401 618 12 604.438 12 587.749V42.2507C12 25.5278 24.1706 12 39.1474 12H910.853C925.86 12 938 25.5618 938 42.2507V587.749C938 604.472 925.86 618 910.853 618Z" stroke="#FFB489" stroke-width="3" stroke-miterlimit="2.61313" stroke-linecap="round" stroke-dasharray="10 10"/>
<defs>
<filter id="filter0_d_149_1267" x="283" y="507" width="384" height="84" filterUnits="userSpaceOnUse" color-interpolation-filters="sRGB">
<feFlood flood-opacity="0" result="BackgroundImageFix"/>
<feColorMatrix in="SourceAlpha" type="matrix" values="0 0 0 0 0 0 0 0 0 0 0 0 0 0 0 0 0 0 127 0" result="hardAlpha"/>
<feOffset dy="4"/>
<feGaussianBlur stdDeviation="4"/>
<feColorMatrix type="matrix" values="0 0 0 0 0.645833 0 0 0 0 0.0592014 0 0 0 0 0.0592014 0 0 0 0.45 0"/>
<feBlend mode="normal" in2="BackgroundImageFix" result="effect1_dropShadow_149_1267"/>
<feBlend mode="normal" in="SourceGraphic" in2="effect1_dropShadow_149_1267" result="shape"/>
</filter>
<linearGradient id="paint0_linear_149_1267" x1="659" y1="548.497" x2="542" y2="549" gradientUnits="userSpaceOnUse">
<stop offset="0.28125" stop-color="#93000A"/>
<stop offset="1" stop-color="#D23333" stop-opacity="0"/>
</linearGradient>
<linearGradient id="paint1_linear_149_1267" x1="291" y1="548.497" x2="408" y2="549" gradientUnits="userSpaceOnUse">
<stop offset="0.28125" stop-color="#93000A"/>
<stop offset="1" stop-color="#D23333" stop-opacity="0"/>
</linearGradient>
<clipPath id="clip0_149_1267">
<rect width="368" height="68" fill="white" transform="translate(291 511)"/>
</clipPath>
</defs>
</svg>
